<svg id="Jackson_logo" data-name="Jackson logo" xmlns="http://www.w3.org/2000/svg" viewBox="124 144 735 100" width="205" height="39"><rect width="942.62" height="391.09" fill="none"/><path d="M217.45,191.37c.26-.78-.13-4.56-1.83-5.47a8.73,8.73,0,0,0-3.91-.78,11.44,11.44,0,0,0-3.91.52C209.36,186.94,216.92,191.63,217.45,191.37Zm12.38,36.77c-2.74,3.12-6.52,8.21-9.78,8.21-2,0-5.47-1.31-8.6-2.87-2.22-1.17-2.74-2.35-2.74-3.78,0-.78.39-2.09.39-2.74,0-2.74-4.17-9.38-8.47-15s-15-11.08-15-20.73c0-8.21,4.17-15.9,13.42-20.86v-1.3c-11.86,3.65-21.37,13.3-21.37,30,0,26.73,22.29,40.29,26.72,60.62a65.42,65.42,0,0,0,51.36-63.87c0-36.25-29.33-65.45-65.05-65.45a65.91,65.91,0,0,0-62.05,43.54,72.06,72.06,0,0,1,54.88-25.55,83.48,83.48,0,0,1,15.51,1.57v1.17c-2.6-.26-5.6-.39-8.21-.39-33.37,0-63,27-63,54.49,0,29.85,25.94,52,54.23,55.54v-1.18c-9.52-3.65-39.5-19.81-39.5-51.36,0-26.59,23.07-49.15,48.62-49.15a39.88,39.88,0,0,1,12.52,1.7c4.17-4.17,6.26-11.34,7.43-11.34.91,0,2.21,4,2.21,7a20.45,20.45,0,0,1-2.08,7.95c6.52,4.17,11,16.42,11,18.64,0,1.43-.65,2.61-.65,4.3s1.82,11.34,3.91,20.21C227.09,214.06,229.83,225.53,229.83,228.14Z" fill="#ef0029"/><path d="M425.73,235.45H410.21l-9.42-21.84h-30.6l-9.74,21.84h-8.56l37.34-82.62ZM373.4,206.66h24.29l-11.88-27.4Zm94.49,30.28c-21.72,0-39.06-15.83-39.06-40.66,0-27,18.94-42.6,39.06-42.6,14.66,0,28.36,7.71,29.22,22.26l-15.95,1.93c-.43-10.7-6.53-16.69-15.84-16.69-12.3,0-22.26,11.55-22.26,28.46,0,20.55,12.74,34.78,30.5,34.78,10,0,19.05-4.49,24.4-12.09C496.68,228.38,482.55,236.94,467.89,236.94Zm44.63-81.76h14.34v38l35.21-38H573.3l-27.5,29.65L576,235.45H559.39l-23.65-39.81-8.88,9.41v30.4H512.52Zm236.08-2.35,57.68,56.5V155.18h8.45v82.51l-57.68-56.4v54.16H748.6Zm-438,97.92c12.09-4.28,15.62-15.2,15.62-29V155.08h14.45v67.2c0,17.87-8,29.43-22.8,29.43A30.18,30.18,0,0,1,310.58,250.75Zm301.14-65.07,11.45,4.5c11.78,4.6,20,11.66,20,23,0,13.8-11.88,23.75-29.43,23.75-17.77,0-29.86-8.13-31.15-22.79l15.84-1.93c.22,9.74,5.57,17.66,16.48,17.66,9.63,0,14.77-5,14.77-12,0-6.63-4-10.91-14.66-15.08l-11.45-4.5c-11.56-4.49-18.51-12.09-18.51-21.94,0-12.41,11.34-22.69,27.71-22.69,16,0,26.65,7.28,28.36,19.48l-15.52,1.93c0-7.92-4.92-14.34-14.12-14.34-8.13,0-12.74,4.81-12.74,10.91C598.77,177.55,602.09,181.94,611.72,185.68Zm43.13,9.85c0-26.22,19.37-41.85,40.13-41.85,21,0,39.49,14.88,39.49,41.42,0,26.22-19.37,41.84-40.13,41.84C673.36,236.94,654.85,222.07,654.85,195.53Zm41.31,34c13.16,0,22.37-12.2,22.37-31.68,0-21.94-10.71-36.81-25.37-36.81-13.16,0-22.36,12.2-22.36,31.68C670.8,214.68,681.5,229.56,696.16,229.56Z" fill="#3b062e"/><path d="M831,162.35a8.52,8.52,0,0,1,2.4-6.18,8.55,8.55,0,0,1,12.06,0,9.11,9.11,0,0,1,0,12.37,8.6,8.6,0,0,1-12.06,0A8.52,8.52,0,0,1,831,162.35Zm1.78,0a7,7,0,0,0,1.84,5,6.81,6.81,0,0,0,9.64,0,7.63,7.63,0,0,0,0-9.94,6.81,6.81,0,0,0-9.64,0A7.07,7.07,0,0,0,832.74,162.36Zm3.55-4.74h3.39c1.9,0,2.94,1,2.94,2.71a2.62,2.62,0,0,1-.59,1.74,2.55,2.55,0,0,1-1.5.87l2.82,4.13h-1.82l-2.8-4h-.84v4h-1.6Zm3.37,3.86c.9,0,1.36-.38,1.36-1.15s-.46-1.16-1.36-1.16h-1.77v2.31Z" fill="#3b062e"/></svg>